<svg width="11" height="6" viewBox="0 0 11 6" fill="none" xmlns="http://www.w3.org/2000/svg" class="transition-transform duration-200 rotate-0"><path d="M4.78961 0.28256C4.73903 0.333028 4.6967 0.388525 4.65957 0.446357L0.783583 4.32737C0.405652 4.70614 0.405293 5.3202 0.783583 5.69916C1.16187 6.07758 1.77495 6.07794 2.1536 5.69916L5.4913 2.35678L8.84676 5.71604C9.22504 6.09464 9.83813 6.09482 10.2166 5.71604C10.4055 5.52638 10.5004 5.27836 10.5 5.03033C10.5004 4.78212 10.4055 4.53391 10.2162 4.34497L6.32339 0.446537C6.28626 0.388525 6.24357 0.333208 6.19263 0.28256C5.99927 0.0889497 5.74493 -0.00426292 5.4913 0.000227451C5.23803 -0.00444221 4.98297 0.0889497 4.78961 0.28256Z" fill="#767676"></path></svg>