<svg width="10" height="6" viewBox="0 0 10 6" fill="#767676" xmlns="http://www.w3.org/2000/svg" class="fill-[#767676] transition-transform duration-300"><path d="M5.71039 5.7175C5.76097 5.66703 5.8033 5.61154 5.84043 5.5537L9.71642 1.6727C10.0943 1.29392 10.0947 0.679859 9.71642 0.3009C9.33813 -0.0775205 8.72505 -0.0778797 8.3464 0.3009L5.0087 3.64328L1.65324 0.284017C1.27496 -0.0945826 0.661873 -0.0947622 0.283404 0.284017C0.0945285 0.473676 -0.000357725 0.721706 1.01339e-06 0.969736C-0.000357725 1.21794 0.0945285 1.46615 0.283763 1.65509L4.17661 5.55352C4.21374 5.61154 4.25643 5.66685 4.30737 5.7175C4.50073 5.91111 4.75507 6.00432 5.0087 5.99983C5.26197 6.0045 5.51703 5.91111 5.71039 5.7175Z"></path></svg>