<svg xmlns="http://www.w3.org/2000/svg" width="1em" height="1em" fill="currentColor" viewBox="0 0 18 19" class="size-4.5"><g fill="currentColor" clip-path="url(#Gift2_svg__a)"><path d="M8.194 11.979H1.498c-.53 0-.965.303-.965.673v5.054c0 .37.434.673.965.673h6.808c.227 0 .227-.17.227-.17v-6.001s0-.229-.34-.229M16.636 11.979H9.949c-.407 0-.346.296-.346.296v5.94s-.003.164.242.164h6.79c.53 0 .965-.303.965-.673v-5.054c0-.37-.434-.673-.965-.673M8.533 6.928s0-.282-.284-.282H1.382a.844.844 0 0 0-.849.833v2.6c0 .458.382.833.85.833h6.89c.26 0 .26-.222.26-.222zM16.75 6.646H9.862c-.262 0-.262.245-.262.245v3.804s0 .217.319.217h6.831c.468 0 .85-.375.85-.833v-2.6a.844.844 0 0 0-.85-.833M4.829 5.654c-.457 0-.874-.036-1.24-.108-.929-.181-1.568-.535-1.952-1.08-.345-.488-.45-1.09-.314-1.79C1.563 1.453 2.384.78 3.637.78q.4 0 .866.09c.786.155 1.792.605 2.69 1.207 1.525 1.021 1.6 1.656 1.525 2.045-.112.57-.646.979-1.632 1.247a9 9 0 0 1-2.257.286M3.637 2.379c-.485 0-.652.135-.743.604-.075.383.02.517.05.561.13.184.468.337.952.432.26.051.584.078.932.078.768 0 1.444-.116 1.893-.244.032-.009.083-.047.029-.08-.587-.477-1.66-1.115-2.554-1.29a3 3 0 0 0-.559-.061M13.328 5.654c-.768 0-1.591-.104-2.258-.286-.986-.268-1.52-.676-1.632-1.247-.075-.389 0-1.024 1.525-2.045.898-.602 1.904-1.052 2.69-1.206q.467-.09.866-.091c1.253 0 2.075.674 2.313 1.897.137.7.032 1.302-.313 1.79-.384.545-1.023.899-1.952 1.08a6.5 6.5 0 0 1-1.24.108M11.419 3.72c-.052.03-.027.078 0 .086a7.2 7.2 0 0 0 1.908.248c.35 0 .672-.027.933-.078.484-.095.822-.248.952-.432.03-.044.126-.178.05-.561-.091-.469-.258-.604-.743-.604q-.244 0-.559.06c-.894.176-1.954.803-2.54 1.281"></path></g><defs><clipPath id="Gift2_svg__a"><path fill="currentColor" d="M0 .846h18v18H0z"></path></clipPath></defs></svg>