<svg xmlns="http://www.w3.org/2000/svg" width="1em" height="1em" fill="currentColor" viewBox="0 0 20 21" class="text-red-400" style="width:20px;height:20px" stroke-width="0.25"><path fill="currentColor" d="M11.071 2.988a2.505 2.505 0 0 1 2.5 2.5v4.644H7.1a.716.716 0 0 0-.715.714.715.715 0 0 0 .715.714h6.472v4.643a2.503 2.503 0 0 1-2.5 2.5H2.5a2.503 2.503 0 0 1-2.5-2.5V5.488a2.503 2.503 0 0 1 2.5-2.5zm4.647 3.585a.72.72 0 0 1 .5.197l3.573 3.57a.715.715 0 0 1 0 1.01l-3.572 3.572a.715.715 0 0 1-1.01-1.01l2.352-2.352h-3.99v-1.428h3.99L15.21 7.779a.715.715 0 0 1 .509-1.206"></path></svg>