<svg xmlns="http://www.w3.org/2000/svg" width="1em" height="1em" fill="currentColor" viewBox="0 0 20 21" class="text-figma-green fill-figma-green" style="width:20px;height:20px" stroke-width="0.25"><g clip-path="url(#User_svg__a)"><path fill="currentColor" d="M5.714 5.846a4.286 4.286 0 1 1 8.572 0v2.857a4.286 4.286 0 0 1-8.572 0zM0 18.866c0-.108.015-.215.057-.314.891-2.091 5.724-4.135 8.514-4.135h2.858c2.79 0 7.623 2.044 8.514 4.135a.8.8 0 0 1 .057.313v.267a1 1 0 0 1-1 1H1a1 1 0 0 1-1-1z"></path></g><defs><clipPath id="User_svg__a"><path fill="currentColor" d="M0 .846h20v20H0z"></path></clipPath></defs></svg>