<svg xmlns="http://www.w3.org/2000/svg" width="1em" height="1em" fill="currentColor" viewBox="0 0 20 21" class="text-white/80" style="width:20px;height:20px" stroke-width="0.25"><g fill="currentColor" clip-path="url(#ChartUp_svg__a)"><path d="M3.636 16.3H1.818C.818 16.3 0 17.12 0 18.12s.818 1.818 1.818 1.818h1.818c1 0 1.819-.819 1.819-1.819S4.636 16.3 3.636 16.3M10.909 14.482H9.09c-1 0-1.819.818-1.819 1.818v1.819c0 1 .819 1.818 1.819 1.818h1.818c1 0 1.818-.819 1.818-1.819V16.3c0-1-.818-1.818-1.818-1.818M18.182 10.846h-1.818c-1 0-1.818.818-1.818 1.818v5.454c0 1 .818 1.819 1.818 1.819h1.818c1 0 1.818-.819 1.818-1.819v-5.454c0-1-.818-1.818-1.818-1.818M19.09 1.755h-6c-.817 0-1.18 1-.636 1.545l1.728 1.728C10.818 8.846 6 11.755.909 11.755c-.545 0-.909.363-.909.909 0 .545.364.91.91.91 6.09 0 11.726-1.728 15.817-6l1.637 1.635c.545.546 1.545.182 1.545-.636V2.664c.091-.545-.273-.91-.818-.91"></path></g><defs><clipPath id="ChartUp_svg__a"><path fill="currentColor" d="M0 .846h20v20H0z"></path></clipPath></defs></svg>