<svg xmlns="http://www.w3.org/2000/svg" width="1em" height="1em" fill="currentColor" viewBox="0 0 20 21" class="text-white/80" style="width:20px;height:20px" stroke-width="0.25"><g clip-path="url(#Note_svg__a)"><path fill="currentColor" d="M16 3.346h-3.333c0-1.38-1.196-2.5-2.667-2.5s-2.667 1.12-2.667 2.5H4c-1.104 0-2 .84-2 1.875v13.75c0 1.035.896 1.875 2 1.875h12c1.104 0 2-.84 2-1.875V5.22c0-1.035-.896-1.875-2-1.875M6 17.408c-.554 0-1-.418-1-.937s.446-.938 1-.938 1 .418 1 .938-.446.937-1 .937m0-3.75c-.554 0-1-.418-1-.937s.446-.938 1-.938 1 .418 1 .938-.446.937-1 .937m0-3.75c-.554 0-1-.418-1-.937s.446-.938 1-.938 1 .418 1 .938-.446.937-1 .937m4-7.5c.554 0 1 .418 1 .938s-.446.937-1 .937-1-.418-1-.937.446-.938 1-.938m5.333 14.375c0 .172-.15.313-.333.313H9c-.183 0-.333-.14-.333-.313v-.625c0-.172.15-.312.333-.312h6c.183 0 .333.14.333.312zm0-3.75c0 .172-.15.313-.333.313H9c-.183 0-.333-.14-.333-.313v-.625c0-.172.15-.312.333-.312h6c.183 0 .333.14.333.312zm0-3.75c0 .172-.15.313-.333.313H9c-.183 0-.333-.14-.333-.313v-.625c0-.172.15-.312.333-.312h6c.183 0 .333.14.333.312z"></path></g><defs><clipPath id="Note_svg__a"><path fill="currentColor" d="M0 .846h20v20H0z"></path></clipPath></defs></svg>